<mxfile modified="2024-04-20T18:45:00.540Z" host="app.diagrams.net" agent="Mozilla/5.0 (Windows NT 10.0; Win64; x64) AppleWebKit/537.36 (KHTML, like Gecko) Chrome/124.0.0.0 Safari/537.36" etag="Kw3odXxpsMl7SlxknGuy" version="24.2.7" type="device">
  <diagram id="WI9T0HZ2pTsCkuznbFz-" name="Page-1">
    <mxGraphModel dx="794" dy="420" grid="1" gridSize="10" guides="1" tooltips="1" connect="1" arrows="1" fold="1" page="1" pageScale="1" pageWidth="1169" pageHeight="827" math="0" shadow="0">
      <root>
        <mxCell id="0" />
        <mxCell id="1" parent="0" />
        <mxCell id="n3fbE7orVKtYOImx4gzR-19" style="edgeStyle=orthogonalEdgeStyle;rounded=0;orthogonalLoop=1;jettySize=auto;html=1;entryX=0;entryY=0.5;entryDx=0;entryDy=0;" edge="1" parent="1" source="n3fbE7orVKtYOImx4gzR-17" target="n3fbE7orVKtYOImx4gzR-11">
          <mxGeometry relative="1" as="geometry" />
        </mxCell>
        <mxCell id="n3fbE7orVKtYOImx4gzR-17" value="" style="whiteSpace=wrap;html=1;aspect=fixed;fillColor=#d5e8d4;strokeColor=#82b366;" vertex="1" parent="1">
          <mxGeometry x="260.8" y="300" width="200" height="200" as="geometry" />
        </mxCell>
        <mxCell id="n3fbE7orVKtYOImx4gzR-18" value="" style="edgeStyle=orthogonalEdgeStyle;rounded=0;orthogonalLoop=1;jettySize=auto;html=1;" edge="1" parent="1" source="n3fbE7orVKtYOImx4gzR-11" target="n3fbE7orVKtYOImx4gzR-17">
          <mxGeometry relative="1" as="geometry" />
        </mxCell>
        <mxCell id="n3fbE7orVKtYOImx4gzR-11" value="" style="whiteSpace=wrap;html=1;aspect=fixed;strokeColor=#6c8ebf;fillColor=#dae8fc;" vertex="1" parent="1">
          <mxGeometry x="552.5" y="300" width="200" height="200" as="geometry" />
        </mxCell>
        <mxCell id="RLjyjs_sm2IHfBNOWAbh-37" style="edgeStyle=elbowEdgeStyle;rounded=0;orthogonalLoop=1;jettySize=auto;html=1;strokeColor=#000000;exitX=0.497;exitY=1;exitDx=0;exitDy=0;exitPerimeter=0;fillColor=#000000;" parent="1" source="RLjyjs_sm2IHfBNOWAbh-16" edge="1">
          <mxGeometry relative="1" as="geometry">
            <mxPoint x="652" y="310" as="targetPoint" />
          </mxGeometry>
        </mxCell>
        <mxCell id="n3fbE7orVKtYOImx4gzR-7" style="edgeStyle=orthogonalEdgeStyle;rounded=0;orthogonalLoop=1;jettySize=auto;html=1;exitX=1.165;exitY=0.46;exitDx=0;exitDy=0;exitPerimeter=0;entryX=-0.085;entryY=0.461;entryDx=0;entryDy=0;entryPerimeter=0;" edge="1" parent="1" source="RLjyjs_sm2IHfBNOWAbh-14" target="RLjyjs_sm2IHfBNOWAbh-16">
          <mxGeometry relative="1" as="geometry">
            <mxPoint x="620" y="224" as="targetPoint" />
          </mxGeometry>
        </mxCell>
        <mxCell id="n3fbE7orVKtYOImx4gzR-22" style="edgeStyle=orthogonalEdgeStyle;rounded=0;orthogonalLoop=1;jettySize=auto;html=1;entryX=0.131;entryY=-0.007;entryDx=0;entryDy=0;exitX=1.192;exitY=0.46;exitDx=0;exitDy=0;exitPerimeter=0;entryPerimeter=0;" edge="1" parent="1" source="RLjyjs_sm2IHfBNOWAbh-14" target="n3fbE7orVKtYOImx4gzR-11">
          <mxGeometry relative="1" as="geometry" />
        </mxCell>
        <mxCell id="RLjyjs_sm2IHfBNOWAbh-14" value="Azure Event Hub" style="aspect=fixed;html=1;perimeter=none;align=center;shadow=0;dashed=0;image;fontSize=12;image=img/lib/mscae/Event_Hubs.svg;labelBackgroundColor=#ffffff;fillColor=#4D9900;" parent="1" vertex="1">
          <mxGeometry x="465.5" y="198.99999999999994" width="48.5" height="50" as="geometry" />
        </mxCell>
        <mxCell id="RLjyjs_sm2IHfBNOWAbh-16" value="Azure Stream Analytics" style="aspect=fixed;html=1;perimeter=none;align=center;shadow=0;dashed=0;image;fontSize=12;image=img/lib/mscae/Stream_Analytics.svg;labelBackgroundColor=#ffffff;fillColor=#4D9900;" parent="1" vertex="1">
          <mxGeometry x="620.0000000000001" y="198" width="65" height="51" as="geometry" />
        </mxCell>
        <mxCell id="RLjyjs_sm2IHfBNOWAbh-22" value="Azure Data Factory" style="aspect=fixed;html=1;perimeter=none;align=center;shadow=0;dashed=0;image;fontSize=12;image=img/lib/mscae/Data_Factory.svg;labelBackgroundColor=#ffffff;fillColor=#4D9900;" parent="1" vertex="1">
          <mxGeometry x="627.5000000000001" y="414" width="50" height="50" as="geometry" />
        </mxCell>
        <mxCell id="n3fbE7orVKtYOImx4gzR-1" value="Game" style="html=1;whiteSpace=wrap;strokeColor=none;fillColor=#0079D6;labelPosition=center;verticalLabelPosition=middle;verticalAlign=top;align=center;fontSize=12;outlineConnect=0;spacingTop=-6;fontColor=#FFFFFF;sketch=0;shape=mxgraph.sitemap.game;" vertex="1" parent="1">
          <mxGeometry x="290" y="194.5" width="90" height="59" as="geometry" />
        </mxCell>
        <mxCell id="n3fbE7orVKtYOImx4gzR-6" style="edgeStyle=orthogonalEdgeStyle;rounded=0;orthogonalLoop=1;jettySize=auto;html=1;exitX=1;exitY=0.5;exitDx=0;exitDy=0;exitPerimeter=0;entryX=-0.216;entryY=0.5;entryDx=0;entryDy=0;entryPerimeter=0;" edge="1" parent="1" source="n3fbE7orVKtYOImx4gzR-1" target="RLjyjs_sm2IHfBNOWAbh-14">
          <mxGeometry relative="1" as="geometry" />
        </mxCell>
        <mxCell id="n3fbE7orVKtYOImx4gzR-9" value="Data Lake Storage" style="image;sketch=0;aspect=fixed;html=1;points=[];align=center;fontSize=12;image=img/lib/mscae/Data_Lake_Store.svg;" vertex="1" parent="1">
          <mxGeometry x="627.5" y="330" width="50" height="39" as="geometry" />
        </mxCell>
        <mxCell id="n3fbE7orVKtYOImx4gzR-13" value="Databricks" style="image;aspect=fixed;html=1;points=[];align=center;fontSize=12;image=img/lib/azure2/analytics/Azure_Databricks.svg;" vertex="1" parent="1">
          <mxGeometry x="334.02" y="320.5" width="53.56" height="58" as="geometry" />
        </mxCell>
        <mxCell id="n3fbE7orVKtYOImx4gzR-23" style="edgeStyle=orthogonalEdgeStyle;rounded=0;orthogonalLoop=1;jettySize=auto;html=1;" edge="1" parent="1" source="n3fbE7orVKtYOImx4gzR-16" target="n3fbE7orVKtYOImx4gzR-20">
          <mxGeometry relative="1" as="geometry" />
        </mxCell>
        <mxCell id="n3fbE7orVKtYOImx4gzR-16" value="Machine Learning" style="image;aspect=fixed;html=1;points=[];align=center;fontSize=12;image=img/lib/azure2/ai_machine_learning/Machine_Learning.svg;" vertex="1" parent="1">
          <mxGeometry x="334.02000000000004" y="410" width="50.82" height="54" as="geometry" />
        </mxCell>
        <mxCell id="n3fbE7orVKtYOImx4gzR-20" value="Kubernetes Service" style="image;aspect=fixed;html=1;points=[];align=center;fontSize=12;image=img/lib/azure2/compute/Kubernetes_Services.svg;" vertex="1" parent="1">
          <mxGeometry x="325" y="540" width="68" height="60" as="geometry" />
        </mxCell>
      </root>
    </mxGraphModel>
  </diagram>
</mxfile>
